<svg xmlns="http://www.w3.org/2000/svg" viewBox="0 0 113.4 113.6"><style>.st0{fill:#2e7631}</style><path class="st0" d="M65.7 32.2c0 .9-.7 1.7-1.7 1.7H50.2c-.9 0-1.7-.7-1.7-1.7V18.4c0-.9.7-1.7 1.7-1.7H64c.9 0 1.7.8 1.7 1.7v13.8zM86.2 73.3c0 .9-.7 1.7-1.7 1.7H70.7c-.9 0-1.7-.7-1.7-1.7V59.5c0-.9.8-1.7 1.7-1.7h13.8c.9 0 1.7.8 1.7 1.7v13.8zM45.1 52.7c0 .9-.7 1.7-1.7 1.7H29.6c-.9 0-1.7-.7-1.7-1.7V38.9c0-.9.8-1.7 1.7-1.7h13.8c.9 0 1.7.7 1.7 1.7v13.8zM65.7 52.7c0 .9-.7 1.7-1.7 1.7H50.2c-.9 0-1.7-.7-1.7-1.7V38.9c0-.9.7-1.7 1.7-1.7H64c.9 0 1.7.7 1.7 1.7v13.8zM45.1 73.3c0 .9-.7 1.7-1.7 1.7H29.6c-.9 0-1.7-.7-1.7-1.7V59.5c0-.9.8-1.7 1.7-1.7h13.8c.9 0 1.7.8 1.7 1.7v13.8zM65.7 73.3c0 .9-.7 1.7-1.7 1.7H50.2c-.9 0-1.7-.7-1.7-1.7V59.5c0-.9.7-1.7 1.7-1.7H64c.9 0 1.7.8 1.7 1.7v13.8zM45.1 93.9c0 .9-.7 1.7-1.7 1.7H29.6c-.9 0-1.7-.7-1.7-1.7V80.1c0-.9.8-1.7 1.7-1.7h13.8c.9 0 1.7.8 1.7 1.7v13.8zM65.7 93.9c0 .9-.7 1.7-1.7 1.7H50.2c-.9 0-1.7-.7-1.7-1.7V80.1c0-.9.7-1.7 1.7-1.7H64c.9 0 1.7.8 1.7 1.7v13.8zM46 25.3c0 5.2-4.2 9.4-9.4 9.4s-9.4-4.2-9.4-9.4 4.2-9.4 9.4-9.4 9.4 4.2 9.4 9.4M86.2 32.2c0 .9-.7 1.7-1.7 1.7H70.7c-.9 0-1.7-.7-1.7-1.7V18.4c0-.9.8-1.7 1.7-1.7h13.8c.9 0 1.7.8 1.7 1.7v13.8z"/><path class="st0" d="M113.4 113.5H0V.1h113.4v113.4zM7.7 105.8h98v-98h-98v98z"/></svg>
